<svg width="25" height="25" viewBox="0 0 25 25" fill="none" xmlns="http://www.w3.org/2000/svg">
<g clip-path="url(#clip0_6_10678)">
<path d="M13.9174 12.92C13.6244 12.5023 12.8875 12.192 11.9243 12.4821C11.0399 12.7485 10.6436 14.1638 11.7971 14.7077C11.9781 14.7931 12.4419 14.9753 13.1417 15.2227C14.7079 15.7763 14.7594 17.8333 12.9005 17.9957C12.2811 18.0498 11.3979 17.8833 10.9279 17.2999" stroke="#1F1F1F" stroke-width="2" stroke-miterlimit="10" stroke-linecap="round" stroke-linejoin="round"/>
<path d="M12.5407 18.0605V18.5398" stroke="#1F1F1F" stroke-width="2" stroke-miterlimit="10" stroke-linecap="round" stroke-linejoin="round"/>
<path d="M12.5407 11.7652V12.335" stroke="#1F1F1F" stroke-width="2" stroke-miterlimit="10" stroke-linecap="round" stroke-linejoin="round"/>
<path d="M10.7725 5.50259L10.4862 3.36724C10.353 2.102 11.345 1 12.6172 1C13.8895 1 14.8815 2.102 14.7483 3.36724L14.462 5.50259" stroke="#1F1F1F" stroke-width="2" stroke-miterlimit="10" stroke-linecap="round" stroke-linejoin="round"/>
<path d="M4.93414 19.9939H6.9817" stroke="#1F1F1F" stroke-width="2" stroke-miterlimit="10" stroke-linecap="round" stroke-linejoin="round"/>
<path d="M20.2925 15.1111V13.0331C20.2925 8.79415 16.8562 5.35782 12.6173 5.35782C8.37829 5.35782 4.94196 8.79415 4.94196 13.0331V19.9939C3.86188 20.0387 3.00002 20.9285 3.00002 22.0195C3.00002 23.1392 3.90768 24.0468 5.02736 24.0468H20.2071C21.3268 24.0468 22.2345 23.1392 22.2345 22.0195C22.2345 20.9284 21.3726 20.0387 20.2926 19.9939H19.0717" stroke="#1F1F1F" stroke-width="2" stroke-miterlimit="10" stroke-linecap="round" stroke-linejoin="round"/>
</g>
<defs>
<clipPath id="clip0_6_10678">
<rect width="25" height="25" fill="white"/>
</clipPath>
</defs>
</svg>
